{
  "accessors": [
    {
      "bufferView": 2,
      "componentType": 5126,
      "count": 1378,
      "max": [
        3.246767282485962,
        0.3869476318359375,
        -1.2723479270935059
      ],
      "min": [
        0.8477141857147217,
        0.12786370515823364,
        -3.0216574668884277
      ],
      "type": "VEC3"
    },
    {
      "bufferView": 2,
      "byteOffset": 16536,
      "componentType": 5126,
      "count": 1378,
      "max": [
        0.6278980374336243,
        1.0,
        0.5173391103744507
      ],
      "min": [
        -0.48583900928497314,
        0.7782956957817078,
        -0.5240768790245056
      ],
      "type": "VEC3"
    },
    {
      "bufferView": 1,
      "componentType": 5126,
      "count": 1378,
      "max": [
        1.5195673704147339,
        1.5217432975769043
      ],
      "min": [
        -0.5374130010604858,
        -0.5563268065452576
      ],
      "type": "VEC2"
    },
    {
      "bufferView": 0,
      "componentType": 5125,
      "count": 7764,
      "type": "SCALAR"
    },
    {
      "bufferView": 2,
      "byteOffset": 33072,
      "componentType": 5126,
      "count": 11482,
      "max": [
        3.246793746948242,
        0.251407265663147,
        3.2258858680725098
      ],
      "min": [
        -3.1007275581359863,
        -0.0779387354850769,
        -3.1216182708740234
      ],
      "type": "VEC3"
    },
    {
      "bufferView": 2,
      "byteOffset": 170856,
      "componentType": 5126,
      "count": 11482,
      "max": [
        0.4967990219593048,
        1.0,
        0.6639507412910461
      ],
      "min": [
        -0.5946157574653625,
        0.733565628528595,
        -0.6205232739448547
      ],
      "type": "VEC3"
    },
    {
      "bufferView": 1,
      "byteOffset": 11024,
      "componentType": 5126,
      "count": 11482,
      "max": [
        2.4018588066101074,
        1.8927006721496582
      ],
      "min": [
        -0.5839731693267822,
        -0.9266091585159302
      ],
      "type": "VEC2"
    },
    {
      "bufferView": 0,
      "byteOffset": 31056,
      "componentType": 5125,
      "count": 61272,
      "type": "SCALAR"
    },
    {
      "bufferView": 2,
      "byteOffset": 308640,
      "componentType": 5126,
      "count": 3996,
      "max": [
        1.637097716331482,
        0.00782763957977295,
        2.0892386436462402
      ],
      "min": [
        -2.0681583881378174,
        -0.0779387354850769,
        -0.8222371339797974
      ],
      "type": "VEC3"
    },
    {
      "bufferView": 2,
      "byteOffset": 356592,
      "componentType": 5126,
      "count": 3996,
      "max": [
        0.4360637366771698,
        1.0,
        0.6639507412910461
      ],
      "min": [
        -0.5946157574653625,
        0.733565628528595,
        -0.4949015974998474
      ],
      "type": "VEC3"
    },
    {
      "bufferView": 1,
      "byteOffset": 102880,
      "componentType": 5126,
      "count": 3996,
      "max": [
        0.9872282147407532,
        0.9739958643913269
      ],
      "min": [
        0.0092879394069314,
        0.06096840277314186
      ],
      "type": "VEC2"
    },
    {
      "bufferView": 0,
      "byteOffset": 276144,
      "componentType": 5125,
      "count": 23070,
      "type": "SCALAR"
    },
    {
      "bufferView": 2,
      "byteOffset": 404544,
      "componentType": 5126,
      "count": 1291,
      "max": [
        -1.351348638534546,
        0.18599247932434082,
        -1.1723836660385132
      ],
      "min": [
        -3.1007275581359863,
        0.05615198612213135,
        -3.1216182708740234
      ],
      "type": "VEC3"
    },
    {
      "bufferView": 2,
      "byteOffset": 420036,
      "componentType": 5126,
      "count": 1291,
      "max": [
        0.48729950189590454,
        1.0,
        0.45967888832092285
      ],
      "min": [
        -0.4818452298641205,
        0.8211164474487305,
        -0.48665881156921387
      ],
      "type": "VEC3"
    },
    {
      "bufferView": 1,
      "byteOffset": 134848,
      "componentType": 5126,
      "count": 1291,
      "max": [
        0.9392818212509155,
        0.7009986639022827
      ],
      "min": [
        0.05991852283477783,
        -0.13663619756698608
      ],
      "type": "VEC2"
    },
    {
      "bufferView": 0,
      "byteOffset": 368424,
      "componentType": 5125,
      "count": 7296,
      "type": "SCALAR"
    },
    {
      "bufferView": 2,
      "byteOffset": 435528,
      "componentType": 5126,
      "count": 1277,
      "max": [
        2.5182461738586426,
        1.4866886138916016,
        2.6735987663269043
      ],
      "min": [
        2.125138998031616,
        0.2010452151298523,
        2.276244640350342
      ],
      "type": "VEC3"
    },
    {
      "bufferView": 2,
      "byteOffset": 450852,
      "componentType": 5126,
      "count": 1277,
      "max": [
        0.9999802708625793,
        1.0,
        0.9999802708625793
      ],
      "min": [
        -0.9999802708625793,
        -1.0,
        -0.9999802708625793
      ],
      "type": "VEC3"
    },
    {
      "bufferView": 1,
      "byteOffset": 145176,
      "componentType": 5126,
      "count": 1277,
      "max": [
        1.1102585792541504,
        0.9955016374588013
      ],
      "min": [
        -0.11025860905647278,
        -0.014877855777740479
      ],
      "type": "VEC2"
    },
    {
      "bufferView": 0,
      "byteOffset": 397608,
      "componentType": 5125,
      "count": 4434,
      "type": "SCALAR"
    },
    {
      "bufferView": 2,
      "byteOffset": 466176,
      "componentType": 5126,
      "count": 18572,
      "max": [
        -2.109215259552002,
        0.9255731701850891,
        2.9357800483703613
      ],
      "min": [
        -2.91573166847229,
        0.11327064037322998,
        -2.7090234756469727
      ],
      "type": "VEC3"
    },
    {
      "bufferView": 2,
      "byteOffset": 689040,
      "componentType": 5126,
      "count": 18572,
      "max": [
        0.9999885559082031,
        0.9990959167480469,
        0.9999384880065918
      ],
      "min": [
        -0.9997234344482422,
        -0.9999682307243347,
        -0.9999929666519165
      ],
      "type": "VEC3"
    },
    {
      "bufferView": 1,
      "byteOffset": 155392,
      "componentType": 5126,
      "count": 18572,
      "max": [
        1.0,
        1.0
      ],
      "min": [
        0.0,
        0.0
      ],
      "type": "VEC2"
    },
    {
      "bufferView": 0,
      "byteOffset": 415344,
      "componentType": 5125,
      "count": 51093,
      "type": "SCALAR"
    },
    {
      "bufferView": 2,
      "byteOffset": 911904,
      "componentType": 5126,
      "count": 26956,
      "max": [
        3.5950987339019775,
        2.9219284057617188,
        -1.003058671951294
      ],
      "min": [
        -0.7349129915237427,
        0.18192452192306519,
        -2.7403712272644043
      ],
      "type": "VEC3"
    },
    {
      "bufferView": 2,
      "byteOffset": 1235376,
      "componentType": 5126,
      "count": 26956,
      "max": [
        0.9986571073532104,
        0.9998927712440491,
        0.9995700120925903
      ],
      "min": [
        -0.9996957778930664,
        -0.9971641302108765,
        -0.9995554089546204
      ],
      "type": "VEC3"
    },
    {
      "bufferView": 1,
      "byteOffset": 303968,
      "componentType": 5126,
      "count": 26956,
      "max": [
        2.0361709594726563,
        1.438580870628357
      ],
      "min": [
        -0.9949698448181152,
        -0.22531402111053467
      ],
      "type": "VEC2"
    },
    {
      "bufferView": 0,
      "byteOffset": 619716,
      "componentType": 5125,
      "count": 40452,
      "type": "SCALAR"
    },
    {
      "bufferView": 2,
      "byteOffset": 1558848,
      "componentType": 5126,
      "count": 59,
      "max": [
        2.4474916458129883,
        0.7420800924301147,
        2.6020803451538086
      ],
      "min": [
        2.1958937644958496,
        0.476397305727005,
        2.3477635383605957
      ],
      "type": "VEC3"
    },
    {
      "bufferView": 2,
      "byteOffset": 1559556,
      "componentType": 5126,
      "count": 59,
      "max": [
        0.006293970625847578,
        0.0,
        0.9999802708625793
      ],
      "min": [
        -0.006305413320660591,
        0.0,
        -0.9999802708625793
      ],
      "type": "VEC3"
    },
    {
      "bufferView": 1,
      "byteOffset": 519616,
      "componentType": 5126,
      "count": 59,
      "max": [
        0.9370356202125549,
        0.92196124792099
      ],
      "min": [
        0.06296426057815552,
        0.006136417388916016
      ],
      "type": "VEC2"
    },
    {
      "bufferView": 0,
      "byteOffset": 781524,
      "componentType": 5125,
      "count": 123,
      "type": "SCALAR"
    },
    {
      "bufferView": 2,
      "byteOffset": 1560264,
      "componentType": 5126,
      "count": 184,
      "max": [
        4.726837635040283,
        3.1814117431640625,
        -0.04293346405029297
      ],
      "min": [
        -0.5155039429664612,
        0.6051648259162903,
        -3.818228244781494
      ],
      "type": "VEC3"
    },
    {
      "bufferView": 2,
      "byteOffset": 1562472,
      "componentType": 5126,
      "count": 184,
      "max": [
        0.9971751570701599,
        0.33187681436538696,
        0.9995501041412354
      ],
      "min": [
        -0.9971751570701599,
        -0.33187681436538696,
        -0.9995501041412354
      ],
      "type": "VEC3"
    },
    {
      "bufferView": 1,
      "byteOffset": 520088,
      "componentType": 5126,
      "count": 184,
      "max": [
        0.9727840423583984,
        0.9796794056892395
      ],
      "min": [
        0.002885611727833748,
        0.006551504135131836
      ],
      "type": "VEC2"
    },
    {
      "bufferView": 0,
      "byteOffset": 782016,
      "componentType": 5125,
      "count": 276,
      "type": "SCALAR"
    }
  ],
  "asset": {
    "extras": {
      "author": "MrsM (https://sketchfab.com/MrsM)",
      "license": "CC-BY-NC-4.0 (http://creativecommons.org/licenses/by-nc/4.0/)",
      "source": "https://sketchfab.com/3d-models/zen-garden-e812ad107531427b88335bf177ca1893",
      "title": "Zen Garden"
    },
    "generator": "Sketchfab-12.67.0",
    "version": "2.0"
  },
  "bufferViews": [
    {
      "buffer": 0,
      "byteLength": 783120,
      "name": "floatBufferViews",
      "target": 34963
    },
    {
      "buffer": 0,
      "byteLength": 521560,
      "byteOffset": 783120,
      "byteStride": 8,
      "name": "floatBufferViews",
      "target": 34962
    },
    {
      "buffer": 0,
      "byteLength": 1564680,
      "byteOffset": 1304680,
      "byteStride": 12,
      "name": "floatBufferViews",
      "target": 34962
    }
  ],
  "buffers": [
    {
      "byteLength": 2869360,
      "uri": "scene.bin"
    }
  ],
  "images": [
    {
      "uri": "textures/rock_baseColor.jpeg"
    },
    {
      "uri": "textures/sand_baseColor.jpeg"
    },
    {
      "uri": "textures/water_baseColor.jpeg"
    },
    {
      "uri": "textures/lantern_baseColor.jpeg"
    },
    {
      "uri": "textures/trunk.001_baseColor.jpeg"
    },
    {
      "uri": "textures/lantern2_baseColor.jpeg"
    },
    {
      "uri": "textures/branch_baseColor.png"
    }
  ],
  "materials": [
    {
      "doubleSided": true,
      "name": "rock",
      "pbrMetallicRoughness": {
        "baseColorTexture": {
          "index": 0
        },
        "metallicFactor": 0.0,
        "roughnessFactor": 0.5
      }
    },
    {
      "doubleSided": true,
      "name": "sand",
      "pbrMetallicRoughness": {
        "baseColorTexture": {
          "index": 1
        },
        "metallicFactor": 0.0,
        "roughnessFactor": 0.5
      }
    },
    {
      "doubleSided": true,
      "name": "water",
      "pbrMetallicRoughness": {
        "baseColorTexture": {
          "index": 2
        },
        "metallicFactor": 0.24444350958278552,
        "roughnessFactor": 0.0
      }
    },
    {
      "doubleSided": true,
      "name": "sand2",
      "pbrMetallicRoughness": {
        "baseColorTexture": {
          "index": 1
        },
        "metallicFactor": 0.0,
        "roughnessFactor": 0.5
      }
    },
    {
      "doubleSided": true,
      "name": "lantern",
      "pbrMetallicRoughness": {
        "baseColorTexture": {
          "index": 3
        },
        "metallicFactor": 0.0,
        "roughnessFactor": 0.0
      }
    },
    {
      "doubleSided": true,
      "name": "stone",
      "pbrMetallicRoughness": {
        "baseColorTexture": {
          "index": 0
        },
        "metallicFactor": 0.0
      }
    },
    {
      "doubleSided": true,
      "name": "trunk.001",
      "pbrMetallicRoughness": {
        "baseColorTexture": {
          "index": 4
        },
        "metallicFactor": 0.0,
        "roughnessFactor": 0.5
      }
    },
    {
      "doubleSided": true,
      "name": "lantern2",
      "pbrMetallicRoughness": {
        "baseColorTexture": {
          "index": 5
        },
        "metallicFactor": 0.0,
        "roughnessFactor": 0.0
      }
    },
    {
      "alphaMode": "MASK",
      "doubleSided": true,
      "name": "branch",
      "pbrMetallicRoughness": {
        "baseColorTexture": {
          "index": 6
        },
        "metallicFactor": 0.0,
        "roughnessFactor": 0.5
      }
    }
  ],
  "meshes": [
    {
      "name": "Object_0",
      "primitives": [
        {
          "attributes": {
            "NORMAL": 1,
            "POSITION": 0,
            "TEXCOORD_0": 2
          },
          "indices": 3,
          "material": 0,
          "mode": 4
        }
      ]
    },
    {
      "name": "Object_1",
      "primitives": [
        {
          "attributes": {
            "NORMAL": 5,
            "POSITION": 4,
            "TEXCOORD_0": 6
          },
          "indices": 7,
          "material": 1,
          "mode": 4
        }
      ]
    },
    {
      "name": "Object_2",
      "primitives": [
        {
          "attributes": {
            "NORMAL": 9,
            "POSITION": 8,
            "TEXCOORD_0": 10
          },
          "indices": 11,
          "material": 2,
          "mode": 4
        }
      ]
    },
    {
      "name": "Object_3",
      "primitives": [
        {
          "attributes": {
            "NORMAL": 13,
            "POSITION": 12,
            "TEXCOORD_0": 14
          },
          "indices": 15,
          "material": 3,
          "mode": 4
        }
      ]
    },
    {
      "name": "Object_4",
      "primitives": [
        {
          "attributes": {
            "NORMAL": 17,
            "POSITION": 16,
            "TEXCOORD_0": 18
          },
          "indices": 19,
          "material": 4,
          "mode": 4
        }
      ]
    },
    {
      "name": "Object_5",
      "primitives": [
        {
          "attributes": {
            "NORMAL": 21,
            "POSITION": 20,
            "TEXCOORD_0": 22
          },
          "indices": 23,
          "material": 5,
          "mode": 4
        }
      ]
    },
    {
      "name": "Object_6",
      "primitives": [
        {
          "attributes": {
            "NORMAL": 25,
            "POSITION": 24,
            "TEXCOORD_0": 26
          },
          "indices": 27,
          "material": 6,
          "mode": 4
        }
      ]
    },
    {
      "name": "Object_7",
      "primitives": [
        {
          "attributes": {
            "NORMAL": 29,
            "POSITION": 28,
            "TEXCOORD_0": 30
          },
          "indices": 31,
          "material": 7,
          "mode": 4
        }
      ]
    },
    {
      "name": "Object_8",
      "primitives": [
        {
          "attributes": {
            "NORMAL": 33,
            "POSITION": 32,
            "TEXCOORD_0": 34
          },
          "indices": 35,
          "material": 8,
          "mode": 4
        }
      ]
    }
  ],
  "nodes": [
    {
      "children": [
        1
      ],
      "matrix": [
        1.0,
        0.0,
        0.0,
        0.0,
        0.0,
        2.220446049250313e-16,
        -1.0,
        0.0,
        0.0,
        1.0,
        2.220446049250313e-16,
        0.0,
        0.0,
        0.0,
        0.0,
        1.0
      ],
      "name": "Sketchfab_model"
    },
    {
      "children": [
        2
      ],
      "name": "root"
    },
    {
      "children": [
        3
      ],
      "matrix": [
        1.0,
        0.0,
        0.0,
        0.0,
        0.0,
        2.220446049250313e-16,
        1.0,
        0.0,
        0.0,
        -1.0,
        2.220446049250313e-16,
        0.0,
        0.0,
        0.0,
        0.0,
        1.0
      ],
      "name": "GLTF_SceneRootNode"
    },
    {
      "children": [
        4,
        5,
        6,
        7,
        8,
        9,
        10,
        11,
        12
      ],
      "matrix": [
        1.0,
        0.0,
        0.0,
        0.0,
        0.0,
        1.0,
        0.0,
        0.0,
        0.0,
        0.0,
        1.0,
        0.0,
        0.10354500263929367,
        -0.37706029415130615,
        0.6618243455886841,
        1.0
      ],
      "name": "Landscape_0"
    },
    {
      "mesh": 0,
      "name": "Object_4"
    },
    {
      "mesh": 1,
      "name": "Object_5"
    },
    {
      "mesh": 2,
      "name": "Object_6"
    },
    {
      "mesh": 3,
      "name": "Object_7"
    },
    {
      "mesh": 4,
      "name": "Object_8"
    },
    {
      "mesh": 5,
      "name": "Object_9"
    },
    {
      "mesh": 6,
      "name": "Object_10"
    },
    {
      "mesh": 7,
      "name": "Object_11"
    },
    {
      "mesh": 8,
      "name": "Object_12"
    }
  ],
  "samplers": [
    {
      "magFilter": 9729,
      "minFilter": 9987,
      "wrapS": 10497,
      "wrapT": 10497
    }
  ],
  "scene": 0,
  "scenes": [
    {
      "name": "Sketchfab_Scene",
      "nodes": [
        0
      ]
    }
  ],
  "textures": [
    {
      "sampler": 0,
      "source": 0
    },
    {
      "sampler": 0,
      "source": 1
    },
    {
      "sampler": 0,
      "source": 2
    },
    {
      "sampler": 0,
      "source": 3
    },
    {
      "sampler": 0,
      "source": 4
    },
    {
      "sampler": 0,
      "source": 5
    },
    {
      "sampler": 0,
      "source": 6
    }
  ]
}
